<?xml version="1.0" encoding="utf-8"?>
<!-- Generator: Adobe Illustrator 22.1.0, SVG Export Plug-In . SVG Version: 6.00 Build 0)  -->
<svg version="1.1" id="Livello_1" xmlns="http://www.w3.org/2000/svg" xmlns:xlink="http://www.w3.org/1999/xlink" x="0px" y="0px"
	 viewBox="0 0 94 94" style="enable-background:new 0 0 94 94;" xml:space="preserve">
<style type="text/css">
	.st0{fill:#1A1A1A;stroke:#1A1A1A;stroke-miterlimit:10;}
</style>
<path class="st0" d="M37.8,83.6c-4.7-5.2-6.2-12.6-4.4-19.2c0.9-3.2,2.6-6.3,5-8.7s5.4-4.2,8.7-5.3c6.5-2.2,14.3-1.8,20.2,1.8
	c5.3,3.3,8.9,9.3,9,15.3c0,2.9-0.9,5.8-2.8,8.2c-2,2.5-4.8,4.2-7.9,5.1c-6.8,1.9-14.3,0.4-20.8-2c-3.6-1.4-7.2-3-10.4-5.2
	c-3.3-2.1-6.2-4.8-8.1-8.2c-3.3-5.9-3-14.3,3.5-18.2c5.5-3.2,13.3-2.3,18.2,1.6c5.7,4.6,6.8,12.4,4.7,18.8c-0.5,1.6-1.3,3.2-2.2,4.7
	c-0.2,0.4-0.9,0.2-1.2,0c-3.4-2.4-4.4-6.8-3.2-10.5c0.6-1.9,1.7-3.6,3.3-4.9c1.7-1.4,3.9-2.1,6.1-2.3c4.6-0.3,9.5,1.8,12.2,5.4
	c3,3.9,3,9.1,1.1,13.4c-2.1,4.6-6.4,7.9-11.5,9.4c-5.2,1.4-11.1,1.2-16-0.9c-4.5-1.9-8.6-5.5-10.3-10c-0.8-2.1-0.9-4.4-0.2-6.6
	c0.7-2.1,2-3.9,3.7-5.3c3.6-2.9,8.6-3.9,13.3-3.9c4.8-0.1,10,0.9,14.1,3.4c1.9,1.2,3.7,2.8,4.7,4.7c1.1,2.1,1.4,4.5,0.8,6.8
	c-1.2,4.7-5.3,8.5-9.9,10.5c-4.3,1.8-9.1,2.1-13.6,1.2c-4.5-0.8-8.9-2.8-12.3-5.7c-3.5-3-5.9-6.9-6.9-11.2c-1-4.4-0.5-9,1.1-13.2
	s4.4-8,8.1-10.8c3.9-2.9,8.7-4.6,13.7-5c5.1-0.4,10.2,0.4,14.8,2.4c4.6,1.9,8.7,5,11.4,9.1c2.7,3.9,4.2,8.7,3.8,13.4
	c-0.2,2.3-0.9,4.5-2.1,6.5c-1.3,2.1-3.1,3.8-5.2,5.2c-4.3,2.9-9.7,4.1-14.8,5c-5.3,0.9-10.8,1.6-16.2,1.7s-10.8-0.3-16-1.8
	c-5-1.4-9.8-3.8-13.5-7.3c-3.5-3.3-6-7.4-7.4-11.9C0.8,54.8,0.5,50,1.3,45.4C2.1,40.7,4,36.2,7,32.3c3-4,7-7.3,11.5-9.8
	c4.5-2.6,9.5-4.3,14.7-5.2c5.7-1,11.5-0.8,17.2,0.2c5.9,1.1,11.5,3.1,16.7,5.8c5.1,2.7,9.9,6,14,10c4,3.8,7.3,8.3,9.3,13.3
	s2.6,10.5,1.4,15.8c-1.1,4.9-3.9,9.2-8,12.4c-3.8,3-8.5,4.8-13.3,5.8c-5,1-10.2,1.2-15.2,0.7c-5.6-0.6-11.1-1.9-16.3-4
	c-5.1-2-10-4.8-14.2-8.2C20.6,65.7,17,61.6,14.3,57s-4.6-9.6-5.4-14.8c-0.8-5.1-0.5-10.5,0.9-15.5c1.3-4.6,3.7-8.9,6.8-12.7
	c3.1-3.7,7-6.9,11.5-9.2c4.4-2.3,9.3-3.7,14.4-3.9c4.9-0.2,9.8,0.6,14.4,2.4c4.6,1.7,8.8,4.3,12.4,7.5s6.6,7,8.6,11.2
	c2.1,4.2,3.2,8.8,3.2,13.4c0,4.7-1,9.4-2.9,13.7c-1.9,4.4-4.6,8.4-8,11.9s-7.4,6.5-11.8,8.8c-4.6,2.3-9.7,3.8-14.9,4.3
	c-5.4,0.5-11-0.2-15.9-2.4c-4.4-2-7.9-5.3-9.9-9.5c-1.8-3.8-2.4-8.2-1.8-12.3c0.6-4.2,2.3-8.3,5.1-11.7c3-3.6,7.3-6.2,11.9-7.5
	c4.9-1.4,10.1-1.6,15.2-0.7c5,0.9,9.9,2.9,13.9,5.9c4.1,3.1,7.4,7.1,9.8,11.5c2.4,4.5,3.8,9.4,4.2,14.3c0.5,5,0,10.2-1.6,15
	s-4.5,9.4-9,12.3c-4.4,2.8-9.8,3.8-15,3.4c-5.4-0.3-10.6-2-15.2-4.6c-4.3-2.4-8.2-5.7-11.3-9.4c-3.1-3.7-5.5-8-7.1-12.5
	c-1.5-4.5-2.3-9.2-2-14c0.3-4.7,1.6-9.3,3.9-13.5s5.4-8,9.1-11.1s8-5.6,12.7-7.3s9.7-2.5,14.7-2.2s9.9,1.6,14.4,3.7s8.5,5,11.9,8.5
	c3.3,3.5,5.9,7.5,7.5,12c1.5,4.4,2,9,1.3,13.6c-0.6,4.5-2.3,8.9-4.8,12.8s-5.7,7.4-9.6,10.1c-3.6,2.5-7.7,4.4-12.1,5.3
	c-0.4,0.1-0.8,0-1.1-0.3c-0.2-0.2-0.2-0.6,0.2-0.7c4.6-1,8.8-3,12.4-5.7c3.7-2.7,6.7-6.2,9-10c2.3-3.8,3.8-8.1,4.4-12.4
	c0.6-4.4,0.1-8.9-1.4-13.1s-4.1-8.1-7.2-11.5C76.9,26.8,73,24,68.8,22c-4.2-2-8.9-3.2-13.6-3.4c-4.8-0.2-9.6,0.6-14,2.2
	c-4.5,1.6-8.6,4.1-12.2,7.1s-6.6,6.7-8.8,10.7s-3.5,8.5-3.9,13s0.3,9.1,1.7,13.5c1.4,4.4,3.6,8.5,6.5,12.2S31,84.1,35,86.6
	c4.3,2.6,9.2,4.2,14.2,4.7s10.1-0.3,14.4-2.8c4.5-2.6,7.4-7,9-11.6c1.7-4.6,2.2-9.6,1.8-14.4c-0.3-4.8-1.5-9.6-3.7-13.9
	c-2.1-4.3-5.1-8.3-8.9-11.4c-3.7-3-8.2-5.1-13-6.1c-4.7-1-9.7-1-14.3,0.2c-4.5,1.2-8.7,3.5-11.8,6.8c-2.8,3.1-4.6,7-5.3,11.1
	c-0.7,4-0.4,8.2,1.2,11.9c1.7,4,4.7,7.2,8.7,9.3c4.5,2.3,9.8,3,14.9,2.7c5-0.3,9.9-1.7,14.3-3.9c4.3-2.1,8.2-4.9,11.5-8.2
	s6.1-7.2,8-11.3s3.1-8.6,3.3-13.1c0.2-4.5-0.6-9-2.4-13.1s-4.5-7.9-7.7-11.1c-3.1-3.2-7-5.8-11.2-7.7c-4.2-1.8-8.8-2.9-13.4-2.9
	c-4.8,0-9.5,1.1-13.8,3.1c-4.4,2-8.3,4.9-11.5,8.4s-5.7,7.5-7.3,11.9c-1.7,4.7-2.3,9.8-1.8,14.7c0.4,5,1.9,10,4.2,14.5
	c2.3,4.6,5.5,8.7,9.4,12.3c3.8,3.5,8.3,6.4,13.1,8.6s9.9,3.8,15.2,4.6c4.9,0.8,9.9,1,14.9,0.3c4.7-0.6,9.4-2,13.4-4.5
	c4.1-2.5,7.4-6.1,9.2-10.5c1.9-4.8,2-10.2,0.7-15.2s-4.1-9.6-7.6-13.6c-3.6-4-7.9-7.5-12.6-10.3c-4.8-2.9-10-5.2-15.5-6.7
	c-5.4-1.4-11.1-2-16.8-1.6c-5,0.4-10,1.7-14.6,3.7c-4.5,2-8.7,4.9-12.1,8.4c-3.3,3.4-5.9,7.5-7.3,12c-1.4,4.3-1.7,9-1,13.4
	C3.4,59.7,5.2,64,8,67.6c2.9,3.8,6.9,6.6,11.4,8.5c4.6,1.9,9.7,2.8,14.7,3c5.3,0.3,10.5-0.1,15.7-0.8c5-0.7,10.2-1.5,14.9-3.4
	C69.3,73,73.2,70,75,65.6c1.6-4.2,1.2-8.9-0.5-13c-1.8-4.3-4.9-7.9-9-10.4c-4-2.5-8.6-3.9-13.4-4.2c-4.7-0.3-9.6,0.6-13.8,2.7
	c-4.1,2.1-7.3,5.3-9.5,9.1s-3.3,8.1-3.2,12.4c0.1,4.2,1.6,8.4,4.3,11.8c2.7,3.2,6.4,5.7,10.5,7.1s8.6,1.8,12.8,0.8
	c4.7-1.1,8.9-3.8,11.3-7.8c1.2-2,1.8-4.3,1.5-6.5c-0.3-2.1-1.4-4.1-3-5.6c-3.2-3-8-4.2-12.4-4.6c-4.4-0.3-9.2,0.2-13.1,2.4
	c-1.9,1-3.4,2.4-4.5,4.2c-1.1,1.9-1.5,4-1.1,6.1c0.7,4.4,4.3,8.1,8.3,10.3c4.4,2.4,9.9,3,14.8,1.9c5-1.1,9.4-3.9,11.8-8.3
	c2.2-4,2.5-9.1-0.1-13c-2.2-3.4-6.6-5.5-10.8-5.2c-2.1,0.1-4.1,0.9-5.6,2.2c-1.4,1.3-2.4,3-2.9,4.8c-0.8,3.2-0.1,7,2.9,9
	c-0.4,0-0.8,0-1.2,0c3.6-5.6,4.3-13.1,0.8-18.9c-1.6-2.6-4-4.5-6.9-5.6c-2.7-1-5.8-1.2-8.6-0.5c-3,0.7-5.5,2.4-7,4.9
	c-1.8,2.9-2,6.4-1.2,9.6c1.7,7.1,8.3,11.8,15,14.9c6,2.8,12.7,4.8,19.4,4.4c3.1-0.2,6.1-1,8.7-2.8c2.5-1.7,4.3-4.1,5-6.8
	c1.5-5.5-0.7-11.5-4.8-15.6c-4.4-4.4-11.2-6-17.4-5c-6.6,1-12.6,4.7-15.6,10.4c-3.1,5.7-3.1,12.8-0.1,18.6c0.7,1.4,1.6,2.7,2.7,3.9
	c0.2,0.3,0.1,0.6-0.2,0.7C38.5,84,38,83.9,37.8,83.6z"/>
</svg>
